<?xml version="1.0" encoding="UTF-8"?><svg xmlns="http://www.w3.org/2000/svg" viewBox="0 0 151.37 83"><defs><style>.e{fill:#fdfdfd;}.f{fill:#e08d2c;}.g{fill:#3d3d3b;}.h{fill:#e68d15;font-family:SofiaPro-SemiBold, Sofia Pro;font-size:27px;}.h,.i{isolation:isolate;}</style></defs><g id="a"/><g id="b"><g id="c"><g><g><path class="e" d="M83,83H0C0,55.33,0,27.67,0,0c27.67,0,55.33,0,83,0,0,27.67,0,55.33,0,83ZM1.31,43.29c.11,18.8,13.83,33.24,28.24,37.33,18.86,5.36,37.8-2.38,47.12-19.23,7.77-14.06,5.3-33.32-1.88-42.23l-11.12,4.26c.64,.99,1.22,1.84,1.74,2.72,3.35,5.71,4.4,11.93,3.85,18.44-.84,9.99-5.42,17.91-14.2,22.79-15.27,8.48-36.66,1.79-41.11-19.08-.55-2.59-.61-5.29-.9-7.97l-11.73,2.98ZM72.24,15.62C62.36,2.63,43.85-2.72,26.66,3.67,17.45,7.09,10.63,13.52,5.89,22.1c-2.81,5.09-4.25,10.59-4.52,16.61l12.34-3.35c2.65-10.68,8.49-18.5,19.09-21.64,10.32-3.05,19.88-1.19,28.06,6.4l11.39-4.5Z"/><path class="g" d="M1.31,43.29l11.73-2.98c.29,2.67,.35,5.37,.9,7.97,4.45,20.87,25.85,27.56,41.11,19.08,8.78-4.87,13.36-12.8,14.2-22.79,.55-6.5-.5-12.73-3.85-18.44-.52-.88-1.1-1.72-1.74-2.72l11.12-4.26c7.18,8.92,9.65,28.17,1.88,42.23-9.32,16.85-28.25,24.59-47.12,19.23C15.14,76.52,1.42,62.08,1.31,43.29Z"/><path class="f" d="M72.24,15.62l-11.39,4.5c-8.18-7.59-17.74-9.45-28.06-6.4-10.6,3.13-16.43,10.96-19.09,21.64l-12.34,3.35c.27-6.02,1.71-11.52,4.52-16.61C10.63,13.52,17.45,7.09,26.66,3.67c17.19-6.39,35.7-1.04,45.58,11.95Z"/></g><g id="d" class="i" transform="translate(611 991)"><text class="h" transform="translate(32 48)"><tspan x="0" y="0">Asentrum</tspan></text></g></g></g></g></svg>